<svg id="visual" viewBox="0 0 375 1500" width="375" height="1500" xmlns="http://www.w3.org/2000/svg" xmlns:xlink="http://www.w3.org/1999/xlink" version="1.1"><path d="M0 444L6.3 453C12.7 462 25.3 480 37.8 479.8C50.3 479.7 62.7 461.3 75.2 468.8C87.7 476.3 100.3 509.7 112.8 512C125.3 514.3 137.7 485.7 150.2 475.2C162.7 464.7 175.3 472.3 187.8 485C200.3 497.7 212.7 515.3 225.2 514C237.7 512.7 250.3 492.3 262.8 482.7C275.3 473 287.7 474 300.2 475.7C312.7 477.3 325.3 479.7 337.8 487.8C350.3 496 362.7 510 368.8 517L375 524L375 1501L368.8 1501C362.7 1501 350.3 1501 337.8 1501C325.3 1501 312.7 1501 300.2 1501C287.7 1501 275.3 1501 262.8 1501C250.3 1501 237.7 1501 225.2 1501C212.7 1501 200.3 1501 187.8 1501C175.3 1501 162.7 1501 150.2 1501C137.7 1501 125.3 1501 112.8 1501C100.3 1501 87.7 1501 75.2 1501C62.7 1501 50.3 1501 37.8 1501C25.3 1501 12.7 1501 6.3 1501L0 1501Z" fill="#1f2d46"></path><path d="M0 531L6.3 533.7C12.7 536.3 25.3 541.7 37.8 541.3C50.3 541 62.7 535 75.2 548.5C87.7 562 100.3 595 112.8 608.3C125.3 621.7 137.7 615.3 150.2 606.3C162.7 597.3 175.3 585.7 187.8 576.7C200.3 567.7 212.7 561.3 225.2 563C237.7 564.7 250.3 574.3 262.8 580.5C275.3 586.7 287.7 589.3 300.2 588.8C312.7 588.3 325.3 584.7 337.8 591.2C350.3 597.7 362.7 614.3 368.8 622.7L375 631L375 1501L368.8 1501C362.7 1501 350.3 1501 337.8 1501C325.3 1501 312.7 1501 300.2 1501C287.7 1501 275.3 1501 262.8 1501C250.3 1501 237.7 1501 225.2 1501C212.7 1501 200.3 1501 187.8 1501C175.3 1501 162.7 1501 150.2 1501C137.7 1501 125.3 1501 112.8 1501C100.3 1501 87.7 1501 75.2 1501C62.7 1501 50.3 1501 37.8 1501C25.3 1501 12.7 1501 6.3 1501L0 1501Z" fill="#1d2a42"></path><path d="M0 672L6.3 674.8C12.7 677.7 25.3 683.3 37.8 684.8C50.3 686.3 62.7 683.7 75.2 682.5C87.7 681.3 100.3 681.7 112.8 670.3C125.3 659 137.7 636 150.2 633.2C162.7 630.3 175.3 647.7 187.8 663.2C200.3 678.7 212.7 692.3 225.2 698C237.7 703.7 250.3 701.3 262.8 685C275.3 668.7 287.7 638.3 300.2 638.3C312.7 638.3 325.3 668.7 337.8 675.5C350.3 682.3 362.7 665.7 368.8 657.3L375 649L375 1501L368.8 1501C362.7 1501 350.3 1501 337.8 1501C325.3 1501 312.7 1501 300.2 1501C287.7 1501 275.3 1501 262.8 1501C250.3 1501 237.7 1501 225.2 1501C212.7 1501 200.3 1501 187.8 1501C175.3 1501 162.7 1501 150.2 1501C137.7 1501 125.3 1501 112.8 1501C100.3 1501 87.7 1501 75.2 1501C62.7 1501 50.3 1501 37.8 1501C25.3 1501 12.7 1501 6.3 1501L0 1501Z" fill="#1b283e"></path><path d="M0 719L6.3 728.5C12.7 738 25.3 757 37.8 754.2C50.3 751.3 62.7 726.7 75.2 715.2C87.7 703.7 100.3 705.3 112.8 715.5C125.3 725.7 137.7 744.3 150.2 756.2C162.7 768 175.3 773 187.8 777.7C200.3 782.3 212.7 786.7 225.2 784.7C237.7 782.7 250.3 774.3 262.8 762.3C275.3 750.3 287.7 734.7 300.2 729.5C312.7 724.3 325.3 729.7 337.8 737C350.3 744.3 362.7 753.7 368.8 758.3L375 763L375 1501L368.8 1501C362.7 1501 350.3 1501 337.8 1501C325.3 1501 312.7 1501 300.2 1501C287.7 1501 275.3 1501 262.8 1501C250.3 1501 237.7 1501 225.2 1501C212.7 1501 200.3 1501 187.8 1501C175.3 1501 162.7 1501 150.2 1501C137.7 1501 125.3 1501 112.8 1501C100.3 1501 87.7 1501 75.2 1501C62.7 1501 50.3 1501 37.8 1501C25.3 1501 12.7 1501 6.3 1501L0 1501Z" fill="#19253a"></path><path d="M0 831L6.3 823.5C12.7 816 25.3 801 37.8 799.8C50.3 798.7 62.7 811.3 75.2 817.5C87.7 823.7 100.3 823.3 112.8 823.7C125.3 824 137.7 825 150.2 829C162.7 833 175.3 840 187.8 842.2C200.3 844.3 212.7 841.7 225.2 837.2C237.7 832.7 250.3 826.3 262.8 822C275.3 817.7 287.7 815.3 300.2 817.5C312.7 819.7 325.3 826.3 337.8 829.3C350.3 832.3 362.7 831.7 368.8 831.3L375 831L375 1501L368.8 1501C362.7 1501 350.3 1501 337.8 1501C325.3 1501 312.7 1501 300.2 1501C287.7 1501 275.3 1501 262.8 1501C250.3 1501 237.7 1501 225.2 1501C212.7 1501 200.3 1501 187.8 1501C175.3 1501 162.7 1501 150.2 1501C137.7 1501 125.3 1501 112.8 1501C100.3 1501 87.7 1501 75.2 1501C62.7 1501 50.3 1501 37.8 1501C25.3 1501 12.7 1501 6.3 1501L0 1501Z" fill="#182336"></path><path d="M0 875L6.3 874.5C12.7 874 25.3 873 37.8 878.2C50.3 883.3 62.7 894.7 75.2 906C87.7 917.3 100.3 928.7 112.8 935.5C125.3 942.3 137.7 944.7 150.2 944C162.7 943.3 175.3 939.7 187.8 938C200.3 936.3 212.7 936.7 225.2 938.5C237.7 940.3 250.3 943.7 262.8 942C275.3 940.3 287.7 933.7 300.2 931.2C312.7 928.7 325.3 930.3 337.8 921.2C350.3 912 362.7 892 368.8 882L375 872L375 1501L368.8 1501C362.7 1501 350.3 1501 337.8 1501C325.3 1501 312.7 1501 300.2 1501C287.7 1501 275.3 1501 262.8 1501C250.3 1501 237.7 1501 225.2 1501C212.7 1501 200.3 1501 187.8 1501C175.3 1501 162.7 1501 150.2 1501C137.7 1501 125.3 1501 112.8 1501C100.3 1501 87.7 1501 75.2 1501C62.7 1501 50.3 1501 37.8 1501C25.3 1501 12.7 1501 6.3 1501L0 1501Z" fill="#162032"></path><path d="M0 1002L6.3 999.5C12.7 997 25.3 992 37.8 985.8C50.3 979.7 62.7 972.3 75.2 974.2C87.7 976 100.3 987 112.8 990.3C125.3 993.7 137.7 989.3 150.2 987.7C162.7 986 175.3 987 187.8 991.2C200.3 995.3 212.7 1002.7 225.2 1005.5C237.7 1008.3 250.3 1006.7 262.8 1007.8C275.3 1009 287.7 1013 300.2 1005.8C312.7 998.7 325.3 980.3 337.8 981.5C350.3 982.7 362.7 1003.3 368.8 1013.7L375 1024L375 1501L368.8 1501C362.7 1501 350.3 1501 337.8 1501C325.3 1501 312.7 1501 300.2 1501C287.7 1501 275.3 1501 262.8 1501C250.3 1501 237.7 1501 225.2 1501C212.7 1501 200.3 1501 187.8 1501C175.3 1501 162.7 1501 150.2 1501C137.7 1501 125.3 1501 112.8 1501C100.3 1501 87.7 1501 75.2 1501C62.7 1501 50.3 1501 37.8 1501C25.3 1501 12.7 1501 6.3 1501L0 1501Z" fill="#141e2e"></path><path d="M0 1094L6.3 1092.8C12.7 1091.7 25.3 1089.3 37.8 1083.3C50.3 1077.3 62.7 1067.7 75.2 1068.2C87.7 1068.7 100.3 1079.3 112.8 1085.7C125.3 1092 137.7 1094 150.2 1095.3C162.7 1096.7 175.3 1097.3 187.8 1088.2C200.3 1079 212.7 1060 225.2 1056.3C237.7 1052.7 250.3 1064.3 262.8 1071.7C275.3 1079 287.7 1082 300.2 1076.7C312.7 1071.3 325.3 1057.7 337.8 1059.3C350.3 1061 362.7 1078 368.8 1086.5L375 1095L375 1501L368.8 1501C362.7 1501 350.3 1501 337.8 1501C325.3 1501 312.7 1501 300.2 1501C287.7 1501 275.3 1501 262.8 1501C250.3 1501 237.7 1501 225.2 1501C212.7 1501 200.3 1501 187.8 1501C175.3 1501 162.7 1501 150.2 1501C137.7 1501 125.3 1501 112.8 1501C100.3 1501 87.7 1501 75.2 1501C62.7 1501 50.3 1501 37.8 1501C25.3 1501 12.7 1501 6.3 1501L0 1501Z" fill="#121b2a"></path><path d="M0 1183L6.3 1180.5C12.7 1178 25.3 1173 37.8 1169.5C50.3 1166 62.7 1164 75.2 1159C87.7 1154 100.3 1146 112.8 1144.3C125.3 1142.7 137.7 1147.3 150.2 1152.2C162.7 1157 175.3 1162 187.8 1157.7C200.3 1153.3 212.7 1139.7 225.2 1141.5C237.7 1143.3 250.3 1160.7 262.8 1162.2C275.3 1163.7 287.7 1149.3 300.2 1145.7C312.7 1142 325.3 1149 337.8 1150C350.3 1151 362.7 1146 368.8 1143.5L375 1141L375 1501L368.8 1501C362.7 1501 350.3 1501 337.8 1501C325.3 1501 312.7 1501 300.2 1501C287.7 1501 275.3 1501 262.8 1501C250.3 1501 237.7 1501 225.2 1501C212.7 1501 200.3 1501 187.8 1501C175.3 1501 162.7 1501 150.2 1501C137.7 1501 125.3 1501 112.8 1501C100.3 1501 87.7 1501 75.2 1501C62.7 1501 50.3 1501 37.8 1501C25.3 1501 12.7 1501 6.3 1501L0 1501Z" fill="#111927"></path><path d="M0 1262L6.3 1257.8C12.7 1253.7 25.3 1245.3 37.8 1237.7C50.3 1230 62.7 1223 75.2 1225.3C87.7 1227.7 100.3 1239.3 112.8 1246.7C125.3 1254 137.7 1257 150.2 1259.2C162.7 1261.3 175.3 1262.7 187.8 1261C200.3 1259.3 212.7 1254.7 225.2 1249.7C237.7 1244.7 250.3 1239.3 262.8 1233.2C275.3 1227 287.7 1220 300.2 1215.7C312.7 1211.3 325.3 1209.7 337.8 1210.7C350.3 1211.7 362.7 1215.3 368.8 1217.2L375 1219L375 1501L368.8 1501C362.7 1501 350.3 1501 337.8 1501C325.3 1501 312.7 1501 300.2 1501C287.7 1501 275.3 1501 262.8 1501C250.3 1501 237.7 1501 225.2 1501C212.7 1501 200.3 1501 187.8 1501C175.3 1501 162.7 1501 150.2 1501C137.7 1501 125.3 1501 112.8 1501C100.3 1501 87.7 1501 75.2 1501C62.7 1501 50.3 1501 37.8 1501C25.3 1501 12.7 1501 6.3 1501L0 1501Z" fill="#0f1623"></path><path d="M0 1316L6.3 1318.3C12.7 1320.7 25.3 1325.3 37.8 1327.2C50.3 1329 62.7 1328 75.2 1327C87.7 1326 100.3 1325 112.8 1325C125.3 1325 137.7 1326 150.2 1325C162.7 1324 175.3 1321 187.8 1321.7C200.3 1322.3 212.7 1326.7 225.2 1323C237.7 1319.3 250.3 1307.7 262.8 1307.8C275.3 1308 287.7 1320 300.2 1325.3C312.7 1330.7 325.3 1329.3 337.8 1333C350.3 1336.7 362.7 1345.3 368.8 1349.7L375 1354L375 1501L368.8 1501C362.7 1501 350.3 1501 337.8 1501C325.3 1501 312.7 1501 300.2 1501C287.7 1501 275.3 1501 262.8 1501C250.3 1501 237.7 1501 225.2 1501C212.7 1501 200.3 1501 187.8 1501C175.3 1501 162.7 1501 150.2 1501C137.7 1501 125.3 1501 112.8 1501C100.3 1501 87.7 1501 75.2 1501C62.7 1501 50.3 1501 37.8 1501C25.3 1501 12.7 1501 6.3 1501L0 1501Z" fill="#0d131f"></path><path d="M0 1433L6.3 1427C12.7 1421 25.3 1409 37.8 1401.3C50.3 1393.7 62.7 1390.3 75.2 1389.2C87.7 1388 100.3 1389 112.8 1391.3C125.3 1393.7 137.7 1397.3 150.2 1401.8C162.7 1406.3 175.3 1411.7 187.8 1412.3C200.3 1413 212.7 1409 225.2 1408C237.7 1407 250.3 1409 262.8 1408.5C275.3 1408 287.7 1405 300.2 1401C312.7 1397 325.3 1392 337.8 1392C350.3 1392 362.7 1397 368.8 1399.5L375 1402L375 1501L368.8 1501C362.7 1501 350.3 1501 337.8 1501C325.3 1501 312.7 1501 300.2 1501C287.7 1501 275.3 1501 262.8 1501C250.3 1501 237.7 1501 225.2 1501C212.7 1501 200.3 1501 187.8 1501C175.3 1501 162.7 1501 150.2 1501C137.7 1501 125.3 1501 112.8 1501C100.3 1501 87.7 1501 75.2 1501C62.7 1501 50.3 1501 37.8 1501C25.3 1501 12.7 1501 6.3 1501L0 1501Z" fill="#0a101c"></path></svg>