<svg id="visual" viewBox="0 0 2000 2000" width="2000" height="2000" xmlns="http://www.w3.org/2000/svg" xmlns:xlink="http://www.w3.org/1999/xlink" version="1.1"><path d="M0 417L33.3 430.5C66.7 444 133.3 471 200 470.5C266.7 470 333.3 442 400 453.2C466.7 464.3 533.3 514.7 600 518.3C666.7 522 733.3 479 800 463.3C866.7 447.7 933.3 459.3 1000 478.2C1066.7 497 1133.3 523 1200 520.8C1266.7 518.7 1333.3 488.3 1400 474C1466.7 459.7 1533.3 461.3 1600 463.8C1666.7 466.3 1733.3 469.7 1800 482C1866.7 494.3 1933.3 515.7 1966.7 526.3L2000 537L2000 2001L1966.7 2001C1933.3 2001 1866.7 2001 1800 2001C1733.3 2001 1666.7 2001 1600 2001C1533.3 2001 1466.7 2001 1400 2001C1333.3 2001 1266.7 2001 1200 2001C1133.3 2001 1066.7 2001 1000 2001C933.3 2001 866.7 2001 800 2001C733.3 2001 666.7 2001 600 2001C533.3 2001 466.7 2001 400 2001C333.3 2001 266.7 2001 200 2001C133.3 2001 66.7 2001 33.3 2001L0 2001Z" fill="#1f2d46"></path><path d="M0 546L33.3 550.2C66.7 554.3 133.3 562.7 200 562.3C266.7 562 333.3 553 400 573.3C466.7 593.7 533.3 643.3 600 663.3C666.7 683.3 733.3 673.7 800 660.2C866.7 646.7 933.3 629.3 1000 615.8C1066.7 602.3 1133.3 592.7 1200 595.2C1266.7 597.7 1333.3 612.3 1400 621.7C1466.7 631 1533.3 635 1600 634C1666.7 633 1733.3 627 1800 636.7C1866.7 646.3 1933.3 671.7 1966.7 684.3L2000 697L2000 2001L1966.7 2001C1933.3 2001 1866.7 2001 1800 2001C1733.3 2001 1666.7 2001 1600 2001C1533.3 2001 1466.7 2001 1400 2001C1333.3 2001 1266.7 2001 1200 2001C1133.3 2001 1066.7 2001 1000 2001C933.3 2001 866.7 2001 800 2001C733.3 2001 666.7 2001 600 2001C533.3 2001 466.7 2001 400 2001C333.3 2001 266.7 2001 200 2001C133.3 2001 66.7 2001 33.3 2001L0 2001Z" fill="#1d2a42"></path><path d="M0 759L33.3 763.2C66.7 767.3 133.3 775.7 200 777.7C266.7 779.7 333.3 775.3 400 773.5C466.7 771.7 533.3 772.3 600 755.5C666.7 738.7 733.3 704.3 800 700.2C866.7 696 933.3 722 1000 745.2C1066.7 768.3 1133.3 788.7 1200 797.2C1266.7 805.7 1333.3 802.3 1400 777.8C1466.7 753.3 1533.3 707.7 1600 707.7C1666.7 707.7 1733.3 753.3 1800 763.7C1866.7 774 1933.3 749 1966.7 736.5L2000 724L2000 2001L1966.7 2001C1933.3 2001 1866.7 2001 1800 2001C1733.3 2001 1666.7 2001 1600 2001C1533.3 2001 1466.7 2001 1400 2001C1333.3 2001 1266.7 2001 1200 2001C1133.3 2001 1066.7 2001 1000 2001C933.3 2001 866.7 2001 800 2001C733.3 2001 666.7 2001 600 2001C533.3 2001 466.7 2001 400 2001C333.3 2001 266.7 2001 200 2001C133.3 2001 66.7 2001 33.3 2001L0 2001Z" fill="#1b283e"></path><path d="M0 829L33.3 843.3C66.7 857.7 133.3 886.3 200 882.2C266.7 878 333.3 841 400 823.8C466.7 806.7 533.3 809.3 600 824.5C666.7 839.7 733.3 867.3 800 884.8C866.7 902.3 933.3 909.7 1000 916.8C1066.7 924 1133.3 931 1200 928C1266.7 925 1333.3 912 1400 893.8C1466.7 875.7 1533.3 852.3 1600 844.8C1666.7 837.3 1733.3 845.7 1800 856.7C1866.7 867.7 1933.3 881.3 1966.7 888.2L2000 895L2000 2001L1966.7 2001C1933.3 2001 1866.7 2001 1800 2001C1733.3 2001 1666.7 2001 1600 2001C1533.3 2001 1466.7 2001 1400 2001C1333.3 2001 1266.7 2001 1200 2001C1133.3 2001 1066.7 2001 1000 2001C933.3 2001 866.7 2001 800 2001C733.3 2001 666.7 2001 600 2001C533.3 2001 466.7 2001 400 2001C333.3 2001 266.7 2001 200 2001C133.3 2001 66.7 2001 33.3 2001L0 2001Z" fill="#19253a"></path><path d="M0 998L33.3 986.5C66.7 975 133.3 952 200 950C266.7 948 333.3 967 400 976.3C466.7 985.7 533.3 985.3 600 985.8C666.7 986.3 733.3 987.7 800 993.5C866.7 999.3 933.3 1009.7 1000 1013C1066.7 1016.3 1133.3 1012.7 1200 1006.2C1266.7 999.7 1333.3 990.3 1400 983.8C1466.7 977.3 1533.3 973.7 1600 976.8C1666.7 980 1733.3 990 1800 994.5C1866.7 999 1933.3 998 1966.7 997.5L2000 997L2000 2001L1966.7 2001C1933.3 2001 1866.7 2001 1800 2001C1733.3 2001 1666.7 2001 1600 2001C1533.3 2001 1466.7 2001 1400 2001C1333.3 2001 1266.7 2001 1200 2001C1133.3 2001 1066.7 2001 1000 2001C933.3 2001 866.7 2001 800 2001C733.3 2001 666.7 2001 600 2001C533.3 2001 466.7 2001 400 2001C333.3 2001 266.7 2001 200 2001C133.3 2001 66.7 2001 33.3 2001L0 2001Z" fill="#182336"></path><path d="M0 1063L33.3 1062.3C66.7 1061.7 133.3 1060.3 200 1068.2C266.7 1076 333.3 1093 400 1110C466.7 1127 533.3 1144 600 1154.2C666.7 1164.3 733.3 1167.7 800 1166.7C866.7 1165.7 933.3 1160.3 1000 1158C1066.7 1155.7 1133.3 1156.3 1200 1158.8C1266.7 1161.3 1333.3 1165.7 1400 1163C1466.7 1160.3 1533.3 1150.7 1600 1147.2C1666.7 1143.7 1733.3 1146.3 1800 1132.5C1866.7 1118.7 1933.3 1088.3 1966.7 1073.2L2000 1058L2000 2001L1966.7 2001C1933.3 2001 1866.7 2001 1800 2001C1733.3 2001 1666.7 2001 1600 2001C1533.3 2001 1466.7 2001 1400 2001C1333.3 2001 1266.7 2001 1200 2001C1133.3 2001 1066.7 2001 1000 2001C933.3 2001 866.7 2001 800 2001C733.3 2001 666.7 2001 600 2001C533.3 2001 466.7 2001 400 2001C333.3 2001 266.7 2001 200 2001C133.3 2001 66.7 2001 33.3 2001L0 2001Z" fill="#162032"></path><path d="M0 1253L33.3 1249.3C66.7 1245.7 133.3 1238.3 200 1229.2C266.7 1220 333.3 1209 400 1211.8C466.7 1214.7 533.3 1231.3 600 1236.3C666.7 1241.3 733.3 1234.7 800 1232C866.7 1229.3 933.3 1230.7 1000 1237C1066.7 1243.3 1133.3 1254.7 1200 1259C1266.7 1263.3 1333.3 1260.7 1400 1262.5C1466.7 1264.3 1533.3 1270.7 1600 1260C1666.7 1249.3 1733.3 1221.7 1800 1223.3C1866.7 1225 1933.3 1256 1966.7 1271.5L2000 1287L2000 2001L1966.7 2001C1933.3 2001 1866.7 2001 1800 2001C1733.3 2001 1666.7 2001 1600 2001C1533.3 2001 1466.7 2001 1400 2001C1333.3 2001 1266.7 2001 1200 2001C1133.3 2001 1066.7 2001 1000 2001C933.3 2001 866.7 2001 800 2001C733.3 2001 666.7 2001 600 2001C533.3 2001 466.7 2001 400 2001C333.3 2001 266.7 2001 200 2001C133.3 2001 66.7 2001 33.3 2001L0 2001Z" fill="#141e2e"></path><path d="M0 1391L33.3 1389.3C66.7 1387.7 133.3 1384.3 200 1375.5C266.7 1366.7 333.3 1352.3 400 1353C466.7 1353.7 533.3 1369.3 600 1378.8C666.7 1388.3 733.3 1391.7 800 1393.7C866.7 1395.7 933.3 1396.3 1000 1382.5C1066.7 1368.7 1133.3 1340.3 1200 1334.8C1266.7 1329.3 1333.3 1346.7 1400 1357.5C1466.7 1368.3 1533.3 1372.7 1600 1364.7C1666.7 1356.7 1733.3 1336.3 1800 1339C1866.7 1341.7 1933.3 1367.3 1966.7 1380.2L2000 1393L2000 2001L1966.7 2001C1933.3 2001 1866.7 2001 1800 2001C1733.3 2001 1666.7 2001 1600 2001C1533.3 2001 1466.7 2001 1400 2001C1333.3 2001 1266.7 2001 1200 2001C1133.3 2001 1066.7 2001 1000 2001C933.3 2001 866.7 2001 800 2001C733.3 2001 666.7 2001 600 2001C533.3 2001 466.7 2001 400 2001C333.3 2001 266.7 2001 200 2001C133.3 2001 66.7 2001 33.3 2001L0 2001Z" fill="#121b2a"></path><path d="M0 1524L33.3 1520.3C66.7 1516.7 133.3 1509.3 200 1504.3C266.7 1499.3 333.3 1496.7 400 1489.2C466.7 1481.7 533.3 1469.3 600 1466.8C666.7 1464.3 733.3 1471.7 800 1479C866.7 1486.3 933.3 1493.7 1000 1487.2C1066.7 1480.7 1133.3 1460.3 1200 1463C1266.7 1465.7 1333.3 1491.3 1400 1493.7C1466.7 1496 1533.3 1475 1600 1469.7C1666.7 1464.3 1733.3 1474.7 1800 1475.8C1866.7 1477 1933.3 1469 1966.7 1465L2000 1461L2000 2001L1966.7 2001C1933.3 2001 1866.7 2001 1800 2001C1733.3 2001 1666.7 2001 1600 2001C1533.3 2001 1466.7 2001 1400 2001C1333.3 2001 1266.7 2001 1200 2001C1133.3 2001 1066.7 2001 1000 2001C933.3 2001 866.7 2001 800 2001C733.3 2001 666.7 2001 600 2001C533.3 2001 466.7 2001 400 2001C333.3 2001 266.7 2001 200 2001C133.3 2001 66.7 2001 33.3 2001L0 2001Z" fill="#111927"></path><path d="M0 1644L33.3 1637.7C66.7 1631.3 133.3 1618.7 200 1607.2C266.7 1595.7 333.3 1585.3 400 1588.7C466.7 1592 533.3 1609 600 1619.8C666.7 1630.7 733.3 1635.3 800 1638.8C866.7 1642.3 933.3 1644.7 1000 1642.3C1066.7 1640 1133.3 1633 1200 1625.3C1266.7 1617.7 1333.3 1609.3 1400 1600.2C1466.7 1591 1533.3 1581 1600 1574.5C1666.7 1568 1733.3 1565 1800 1566.5C1866.7 1568 1933.3 1574 1966.7 1577L2000 1580L2000 2001L1966.7 2001C1933.3 2001 1866.7 2001 1800 2001C1733.3 2001 1666.7 2001 1600 2001C1533.3 2001 1466.7 2001 1400 2001C1333.3 2001 1266.7 2001 1200 2001C1133.3 2001 1066.7 2001 1000 2001C933.3 2001 866.7 2001 800 2001C733.3 2001 666.7 2001 600 2001C533.3 2001 466.7 2001 400 2001C333.3 2001 266.7 2001 200 2001C133.3 2001 66.7 2001 33.3 2001L0 2001Z" fill="#0f1623"></path><path d="M0 1725L33.3 1728.5C66.7 1732 133.3 1739 200 1741.5C266.7 1744 333.3 1742 400 1740.3C466.7 1738.7 533.3 1737.3 600 1737.7C666.7 1738 733.3 1740 800 1738.5C866.7 1737 933.3 1732 1000 1733C1066.7 1734 1133.3 1741 1200 1735.7C1266.7 1730.3 1333.3 1712.7 1400 1712.8C1466.7 1713 1533.3 1731 1600 1739C1666.7 1747 1733.3 1745 1800 1750.3C1866.7 1755.7 1933.3 1768.3 1966.7 1774.7L2000 1781L2000 2001L1966.7 2001C1933.3 2001 1866.7 2001 1800 2001C1733.3 2001 1666.7 2001 1600 2001C1533.3 2001 1466.7 2001 1400 2001C1333.3 2001 1266.7 2001 1200 2001C1133.3 2001 1066.7 2001 1000 2001C933.3 2001 866.7 2001 800 2001C733.3 2001 666.7 2001 600 2001C533.3 2001 466.7 2001 400 2001C333.3 2001 266.7 2001 200 2001C133.3 2001 66.7 2001 33.3 2001L0 2001Z" fill="#0d131f"></path><path d="M0 1900L33.3 1891C66.7 1882 133.3 1864 200 1852.3C266.7 1840.7 333.3 1835.3 400 1833.7C466.7 1832 533.3 1834 600 1837.5C666.7 1841 733.3 1846 800 1852.7C866.7 1859.3 933.3 1867.7 1000 1868.8C1066.7 1870 1133.3 1864 1200 1862.5C1266.7 1861 1333.3 1864 1400 1863.2C1466.7 1862.3 1533.3 1857.7 1600 1851.8C1666.7 1846 1733.3 1839 1800 1839.2C1866.7 1839.3 1933.3 1846.7 1966.7 1850.3L2000 1854L2000 2001L1966.7 2001C1933.3 2001 1866.7 2001 1800 2001C1733.3 2001 1666.7 2001 1600 2001C1533.3 2001 1466.7 2001 1400 2001C1333.3 2001 1266.7 2001 1200 2001C1133.3 2001 1066.7 2001 1000 2001C933.3 2001 866.7 2001 800 2001C733.3 2001 666.7 2001 600 2001C533.3 2001 466.7 2001 400 2001C333.3 2001 266.7 2001 200 2001C133.3 2001 66.7 2001 33.3 2001L0 2001Z" fill="#0a101c"></path></svg>