<svg id="visual" viewBox="0 0 960 540" width="960" height="540" xmlns="http://www.w3.org/2000/svg" xmlns:xlink="http://www.w3.org/1999/xlink" version="1.1"><rect width="960" height="540" fill="#111827"></rect><g><g transform="translate(327 77)"><path d="M0 -64.4L55.7 -32.2L55.7 32.2L0 64.4L-55.7 32.2L-55.7 -32.2Z" fill="none" stroke="#a740fe" stroke-width="2"></path></g><g transform="translate(147 417)"><path d="M0 -58L50.2 -29L50.2 29L0 58L-50.2 29L-50.2 -29Z" fill="none" stroke="#a740fe" stroke-width="2"></path></g><g transform="translate(554 371)"><path d="M0 -53L45.9 -26.5L45.9 26.5L0 53L-45.9 26.5L-45.9 -26.5Z" fill="none" stroke="#a740fe" stroke-width="2"></path></g><g transform="translate(938 536)"><path d="M0 -59L51.1 -29.5L51.1 29.5L0 59L-51.1 29.5L-51.1 -29.5Z" fill="none" stroke="#a740fe" stroke-width="2"></path></g><g transform="translate(19 81)"><path d="M0 -47L40.7 -23.5L40.7 23.5L0 47L-40.7 23.5L-40.7 -23.5Z" fill="none" stroke="#a740fe" stroke-width="2"></path></g><g transform="translate(823 410)"><path d="M0 -57L49.4 -28.5L49.4 28.5L0 57L-49.4 28.5L-49.4 -28.5Z" fill="none" stroke="#a740fe" stroke-width="2"></path></g><g transform="translate(350 242)"><path d="M0 -49L42.4 -24.5L42.4 24.5L0 49L-42.4 24.5L-42.4 -24.5Z" fill="none" stroke="#a740fe" stroke-width="2"></path></g><g transform="translate(680 45)"><path d="M0 -57L49.4 -28.5L49.4 28.5L0 57L-49.4 28.5L-49.4 -28.5Z" fill="none" stroke="#a740fe" stroke-width="2"></path></g><g transform="translate(641 222)"><path d="M0 -63L54.6 -31.5L54.6 31.5L0 63L-54.6 31.5L-54.6 -31.5Z" fill="none" stroke="#a740fe" stroke-width="2"></path></g><g transform="translate(918 209)"><path d="M0 -54L46.8 -27L46.8 27L0 54L-46.8 27L-46.8 -27Z" fill="none" stroke="#a740fe" stroke-width="2"></path></g><g transform="translate(184 223)"><path d="M0 -43L37.2 -21.5L37.2 21.5L0 43L-37.2 21.5L-37.2 -21.5Z" fill="none" stroke="#a740fe" stroke-width="2"></path></g><g transform="translate(417 476)"><path d="M0 -47L40.7 -23.5L40.7 23.5L0 47L-40.7 23.5L-40.7 -23.5Z" fill="none" stroke="#a740fe" stroke-width="2"></path></g><g transform="translate(843 41)"><path d="M0 -62L53.7 -31L53.7 31L0 62L-53.7 31L-53.7 -31Z" fill="none" stroke="#a740fe" stroke-width="2"></path></g><g transform="translate(14 297)"><path d="M0 -58L50.2 -29L50.2 29L0 58L-50.2 29L-50.2 -29Z" fill="none" stroke="#a740fe" stroke-width="2"></path></g><g transform="translate(503 49)"><path d="M0 -54L46.8 -27L46.8 27L0 54L-46.8 27L-46.8 -27Z" stroke="#a740fe" fill="none" stroke-width="2"></path></g></g></svg>